<svg width="37.77" height="95.96" viewBox="0 0 37.77 95.96" xmlns="http://www.w3.org/2000/svg" xmlns:xlink="http://www.w3.org/1999/xlink" xml:space="preserve" overflow="hidden"><defs></defs><path d="M30.89 3.12C30.89 3.12 33.73 39.39 34.01 42.69 34.29 45.99 37.77 95.09 37.77 95.09 33.41 96.79 28.71 95.48 28.71 95.48L21.09 45.98 16.07 19.58 14.38 19.11C14.38 19.11 13.81 51.25 13.79 51.08 13.78 50.92 13.07 94.23 13.07 94.23 8.85 96.36 2.98 94.06 2.98 94.06 2.98 94.06 1.17 52.05 0.65 49.59 0.14 47.14 0 0 0 0L30.89 3.12Z" fill="#3E3533"/></svg>