<svg width="53.58" height="84" viewBox="0 0 53.58 84" xmlns="http://www.w3.org/2000/svg" xmlns:xlink="http://www.w3.org/1999/xlink" xml:space="preserve" overflow="hidden"><defs></defs><g><linearGradient x1="46.1594" y1="51.3733" x2="59.0876" y2="38.9424" gradientUnits="userSpaceOnUse" id="SVGID_1_"><stop offset="0" stop-color="#302624" stop-opacity="0.5"/><stop offset="0.9947" stop-color="#302624" stop-opacity="0"/></linearGradient><linearGradient x1="27.0469" y1="41.9888" x2="29.2785" y2="67.8116" gradientUnits="userSpaceOnUse" id="SVGID_2_"><stop offset="0" stop-color="#302624" stop-opacity="0.5"/><stop offset="0.9947" stop-color="#302624" stop-opacity="0"/></linearGradient><linearGradient x1="-1437.22" y1="3.5161" x2="-1435.16" y2="2.3623" gradientUnits="userSpaceOnUse" id="SVGID_3_" gradientTransform="matrix(-1 0 0 1 -1424.06 0)"><stop offset="0" stop-color="#F69D7D"/><stop offset="1" stop-color="#F69D7D" stop-opacity="0.6"/></linearGradient><path d="M46.08 77.29 46.41 79.81 52.84 79.57 52.64 76.89Z" fill="#F8E8D8"/><path d="M41.14 22.63C43.6 23.79 46.67 25.31 47.16 26.54 47.55 27.52 47.64 27.68 50.12 52.99L53.58 77.81 44.92 78.46 41.96 55.84 41.14 22.63Z" fill="#3E3533"/><path d="M41.14 22.63C43.6 23.79 46.67 25.31 47.16 26.54 47.55 27.52 47.64 27.68 50.12 52.99L53.58 77.81 44.92 78.46 41.96 55.84 41.14 22.63Z" fill="url(#SVGID_1_)"/><path d="M45.36 74.68C39.14 76.84 25.07 80.05 13.61 75.35 13.59 72.41 13.64 68.5 13.63 66.44L44.84 69.15C44.99 70.96 45.16 72.16 45.36 74.68Z" fill="#302624"/><g id="XMLID_4_"><path d="M43.48 61.55C43.24 60.66 43.04 60.1 43.04 60.1L15.48 61.23C15.48 61.23 15.38 61.79 15.23 62.75 15.37 62.94 15.48 63.08 15.48 63.08 27.78 68.11 36.69 68.12 43.48 61.55Z" id="XMLID_5_" fill="#330E00"/></g><path d="M9.42 38.11 14.25 55.86 11.79 72.44C11.79 72.44 33.61 80.73 47.3 71.8L44.49 34.75 9.42 38.11Z" fill="#3E3533"/><g id="XMLID_1_"><g id="XMLID_2_"><path d="M41.06 22.53C43.98 23.76 48.09 26.23 44.48 34.74L43.22 60.95C43.22 60.95 44.62 64.99 43.74 65.85 36.95 72.44 28.03 72.44 15.72 67.41 15.72 67.41 15.07 66.58 14.99 66.25 14.54 64.47 16.04 59.5 16.04 59.5L9.17 38.11C9.17 38.11 2.39 28.88 6.88 25.53 13.94 20.27 29.49 17.66 41.06 22.53Z" id="XMLID_3_" fill="#3E3533"/></g></g><path d="M47.3 71.8 45.67 50.3C42.5 54.03 39.97 58.3 38.26 62.89 30.99 59.12 24.63 53.61 19.86 46.95 21.65 51.75 23.45 56.54 25.24 61.34 20.59 55.88 13.25 41.14 8.6 35.68L14.25 55.87 11.79 72.45C11.79 72.44 33.61 80.73 47.3 71.8Z" fill="url(#SVGID_2_)"/><path d="M33.03 19.36C33.03 19.36 35.75 19.24 36.24 19.55 36.73 19.85 37.97 23.42 38.22 23.98 38.47 24.54 34.92 27.86 34.92 27.86 34.92 27.86 37.85 32.67 37.73 33.05 37.61 33.44 32.41 54.45 32.41 54.45 32.41 54.45 19.82 35.68 19.56 34.75 19.3 33.82 20.77 28.99 20.77 28.99 20.77 28.99 17.04 26.24 16.82 25.64 16.59 25.04 16.12 21.21 16.82 20.72 17.25 20.42 19.76 19.86 19.76 19.86L33.03 19.36Z" fill="#302624"/><path d="M10.69 1.04C10.33 2.28 10.84 3.58 11.34 4.77 11.49 5.12 11.65 5.5 11.97 5.71 12.29 5.93 12.8 5.89 12.97 5.55 13.13 5.22 12.89 4.84 12.71 4.52 12.52 4.2 12.42 3.72 12.73 3.52 12.87 3.43 13.07 3.43 13.22 3.35 13.55 3.17 13.55 2.7 13.46 2.34 13.34 1.83 13.15 1.35 12.9 0.89 12.65 0.44 12.26-0.01 11.76 -9.99201e-16 11.22 0.01 10.84 0.53 10.69 1.04Z" fill="url(#SVGID_3_)"/><path d="M1.94 80.85 2.24 83.82C2.24 83.82 6.63 84.56 9.84 83.08L9.84 80.3 1.94 80.85Z" fill="#F8E8D8"/><path d="M6.08 26.34C3.61 27.94 0.81 50.85 0.15 58.11-0.51 65.36 1.17 81.51 1.17 81.51 1.17 81.51 5.66 83.32 10.57 81.18L11.5 55.81 13.76 34.04 6.08 26.34Z" fill="#3E3533"/></g></svg>