<svg width="105.09" height="190.05" viewBox="0 0 105.09 190.05" xmlns="http://www.w3.org/2000/svg" xmlns:xlink="http://www.w3.org/1999/xlink" xml:space="preserve" overflow="hidden"><defs></defs><g id="XMLID_1_"><path d="M3.84 183.64C3.84 180.1 26.51 177.23 54.47 177.23 82.43 177.23 105.1 180.1 105.1 183.64 105.1 187.18 82.43 190.05 54.47 190.05 26.5 190.05 3.84 187.18 3.84 183.64Z" id="XMLID_52_" fill="#BDD5DB"/><g id="XMLID_2_"><path d="M73.19 114.27C69.2 101.22 64.31 98.05 63.95 93.7 63.61 89.64 63.52 85.09 63.52 85.09L45.42 85.09C45.42 85.09 45.32 89.64 44.99 93.7 44.63 98.05 39.73 101.22 35.75 114.27 31.15 129.32 29.82 145.63 29.82 145.63 29.82 145.63 39.44 148.84 54.48 148.84 69.52 148.84 79.14 145.63 79.14 145.63 79.14 145.63 77.78 129.32 73.19 114.27Z" id="XMLID_51_" fill="#FFC8AC"/><path d="M85.86 26.25C85.86 26.25 97.08 25.1 96.95 42.85 96.8 63.27 90.98 75.35 79.73 77.98 68.47 80.6 85.86 26.25 85.86 26.25Z" id="XMLID_50_" fill="#AA5E5E"/><g id="XMLID_48_"><path d="M85.79 15.99C87.23 17.2 87.41 20.4 87.22 22.03 87.03 23.74 86.31 24.59 85.22 25.88 84.67 26.53 84.61 26.44 84.34 27.21 84.22 27.55 84.73 27.79 84.99 27.7 88.04 26.66 88.92 22.55 88.37 19.77 88.1 18.4 87.45 16.03 85.86 15.66 85.69 15.62 85.71 15.92 85.79 15.99L85.79 15.99Z" id="XMLID_49_" fill="#AA5E5E"/></g><path d="M93.37 26.05C92.46 23.34 86.58 24.7 85.28 26.21 85.08 26.44 84.73 26.91 84.84 27.24 85.2 28.35 87.27 26.9 87.67 26.75 89.01 26.24 91.86 25.5 93.23 26.24 93.34 26.3 93.4 26.14 93.37 26.05Z" id="XMLID_47_" fill="#AA5E5E"/><path d="M44.61 95.98C41.72 94.72 36.72 96.38 27.63 106.56 25.01 109.5 22.45 112.48 19.95 115.51 18.08 117.78 16.24 120.07 14.45 122.4 13.79 123.26 13.17 124.17 12.34 124.88 11.41 125.68 10.19 125.98 9.03 126.29 8.3 126.48 7.4 126.61 6.85 127.17 6.28 127.75 6.56 128.62 7.28 128.91 8.06 129.22 9.03 129.01 9.85 129.08 9.99 129.09 10.12 129.14 10.21 129.25 10.34 129.42 10.2 129.66 10.12 129.79 9.57 130.6 9.23 131.01 8.9 131.49 8.37 132.26 6.84 133.95 7.51 134.96 7.77 135.36 8.48 135.49 8.84 135.32 9.41 135.04 9.93 134.66 10.4 134.23 10.64 134.02 10.87 133.79 11.09 133.56 11.27 133.37 11.52 133.04 11.82 133.07 12.07 133.1 12.07 133.41 12.03 133.6 11.98 133.81 11.88 134.01 11.78 134.19 11.39 134.9 10.93 135.6 10.63 136.35 10.49 136.72 10.35 137.09 10.32 137.49 10.29 137.8 10.34 138.13 10.56 138.35 10.72 138.51 10.94 138.58 11.17 138.59 11.67 138.63 12.15 138.41 12.54 138.1 13.03 137.71 13.41 137.22 13.79 136.73 14.19 136.22 14.58 135.71 15 135.21 15.09 135.1 15.19 134.99 15.33 134.98 15.48 134.97 15.61 135.1 15.65 135.24 15.69 135.38 15.67 135.54 15.64 135.68 15.55 136.07 15.37 136.4 15.23 136.77 15.08 137.15 14.94 137.54 14.83 137.94 14.71 138.37 14.6 138.84 14.77 139.25 15.08 140.01 15.97 140.16 16.64 139.66 17.3 139.17 18.75 136.39 18.98 135.95 20.42 133.3 22.29 130.92 24.05 128.46 26.82 124.58 33.28 116.92 35.8 114.68L44.61 95.98Z" id="XMLID_46_" fill="#FFC8AC"/><path d="M64.43 95.98C67.32 94.72 72.32 96.38 81.41 106.56 84.03 109.5 86.59 112.48 89.09 115.51 90.96 117.78 92.8 120.07 94.59 122.4 95.25 123.26 95.87 124.17 96.7 124.88 97.63 125.68 98.85 125.98 100 126.29 100.73 126.48 101.63 126.61 102.18 127.17 102.75 127.75 102.47 128.62 101.75 128.91 100.97 129.22 100 129.01 99.18 129.08 99.04 129.09 98.91 129.14 98.82 129.25 98.69 129.42 98.83 129.66 98.91 129.79 99.46 130.6 99.8 131.01 100.13 131.49 100.66 132.26 102.19 133.95 101.52 134.96 101.26 135.36 100.55 135.49 100.19 135.32 99.61 135.04 99.1 134.66 98.63 134.23 98.39 134.02 98.16 133.79 97.94 133.56 97.76 133.37 97.51 133.04 97.21 133.07 96.96 133.1 96.96 133.41 97 133.6 97.05 133.81 97.15 134.01 97.25 134.19 97.64 134.9 98.1 135.6 98.4 136.35 98.54 136.72 98.68 137.09 98.71 137.49 98.74 137.8 98.69 138.13 98.47 138.35 98.31 138.51 98.09 138.58 97.86 138.59 97.36 138.63 96.87 138.41 96.49 138.1 96 137.71 95.61 137.22 95.24 136.73 94.84 136.22 94.45 135.71 94.03 135.21 93.94 135.1 93.84 134.99 93.7 134.98 93.55 134.97 93.42 135.1 93.38 135.24 93.34 135.38 93.36 135.54 93.39 135.68 93.48 136.07 93.65 136.4 93.8 136.77 93.95 137.15 94.09 137.54 94.2 137.94 94.32 138.37 94.43 138.84 94.26 139.25 93.95 140.01 93.06 140.16 92.39 139.66 91.73 139.17 90.28 136.39 90.05 135.95 88.61 133.3 87.08 130.66 85.33 128.2 80.66 121.66 75.76 116.92 73.23 114.68L64.43 95.98Z" id="XMLID_45_" fill="#FFC8AC"/><path d="M63.56 85.08 45.42 85.08C45.42 85.08 45.34 88.75 45.08 92.45 46.94 92.55 48.78 92.6 50.56 92.6 54.83 92.6 60.69 91.13 63.67 89.5 63.51 86.16 63.56 85.08 63.56 85.08Z" id="XMLID_44_" fill="#F49282"/><path d="M29.81 145.62 32.41 176.73C32.41 176.73 27.61 178.15 25.16 179.56 22.7 180.97 23.3 182.7 34.24 182.7 45.18 182.7 50.15 182.7 50.15 182.7L53.51 145.62 29.81 145.62Z" id="XMLID_43_" fill="#FFC8AC"/><path d="M79.19 145.62 76.59 176.73C76.59 176.73 81.38 178.15 83.84 179.56 86.3 180.97 85.7 182.7 74.76 182.7 63.82 182.7 58.85 182.7 58.85 182.7L55.49 145.62 79.19 145.62Z" id="XMLID_42_" fill="#FFC8AC"/><path d="M29.81 145.62C29.81 156.74 32.41 176.73 32.41 176.73 32.41 176.73 27.61 178.15 25.16 179.56 22.7 180.97 23.3 182.7 34.24 182.7 45.18 182.7 50.15 182.7 50.15 182.7L53.51 145.62C53.5 145.62 29.81 134.5 29.81 145.62Z" id="XMLID_41_" fill="#0880A5"/><path d="M52.72 154.19C50.77 153.89 47.6 152.75 47.6 152.75L45.76 176.73 50.68 176.73 52.72 154.19Z" id="XMLID_40_" fill="#0E547A"/><path d="M79.18 145.62C79.18 156.74 76.58 176.73 76.58 176.73 76.58 176.73 81.38 178.15 83.83 179.56 86.29 180.97 85.69 182.7 74.75 182.7 63.81 182.7 58.84 182.7 58.84 182.7L55.48 145.62C55.49 145.62 79.18 134.5 79.18 145.62Z" id="XMLID_39_" fill="#0880A5"/><path d="M51.38 147.62 57.66 147.62 57.66 153.9C55.57 154.47 53.47 154.47 51.38 153.9L51.38 147.62Z" id="XMLID_38_" fill="#0880A5"/><path d="M58.85 182.7C58.85 182.7 63.81 182.7 74.76 182.7 85.71 182.7 86.3 180.97 83.84 179.56 81.38 178.14 76.59 176.73 76.59 176.73L58.31 176.73 58.85 182.7Z" id="XMLID_37_" fill="#002030"/><path d="M32.41 176.73C32.41 176.73 27.61 178.15 25.16 179.56 22.7 180.97 23.3 182.7 34.24 182.7 45.18 182.7 50.15 182.7 50.15 182.7L50.69 176.72 32.41 176.72Z" id="XMLID_36_" fill="#002030"/><path d="M44.55 95.55C42.83 93.6 38.57 92.94 31.88 99.7 25.19 106.46 23.16 108.68 23.16 108.68 23.16 108.68 25.15 117.09 34.73 120.07L44.55 95.55Z" id="XMLID_35_" fill="#4477BB"/><path d="M64.37 95.55C66.09 93.6 70.36 92.94 77.04 99.7 83.73 106.46 85.75 108.68 85.75 108.68 85.75 108.68 83.76 117.09 74.18 120.07L64.37 95.55Z" id="XMLID_34_" fill="#4477BB"/><path d="M50.56 87.12C60.19 87.12 71.44 85.97 78.32 79.55 85.2 73.13 85.89 56.61 81.76 40.32 77.63 24.03 61.8 20.36 50.56 20.36 39.32 20.36 23.49 24.03 19.36 40.32 15.23 56.61 15.92 73.13 22.8 79.55 29.69 85.97 40.93 87.12 50.56 87.12Z" id="XMLID_33_" fill="#FFC8AC"/><path d="M82.48 43.38C82.48 43.38 74.69 38.78 74.08 27.69 65.59 19.69 49.7 22.54 45.43 24.39 41.1 26.27 37.35 29.29 33.78 32.32 27.12 37.99 19.44 45.06 9.97 41.91 4.14 39.97-0.27 34.05 0.01 27.9 0.17 24.43 2.8 25.38 5.2 24.29 7.9 23.06 11.59 21.5 13.58 19.38 30.01 1.78 38.27-1.97 61.78 0.84 68.37 1.63 76.98 5.93 81.35 12.63 87.28 21.73 86.52 33.62 82.48 43.38Z" id="XMLID_32_" fill="#AA5E5E"/><path d="M18.23 69.45C18.23 65.63 21.33 62.53 25.15 62.53 28.97 62.53 32.07 65.63 32.07 69.45 32.07 73.27 28.97 76.37 25.15 76.37 21.33 76.37 18.23 73.27 18.23 69.45Z" id="XMLID_31_" fill="#FCA39A"/><path d="M67.51 69.45C67.51 65.63 70.61 62.53 74.43 62.53 78.25 62.53 81.35 65.63 81.35 69.45 81.35 73.27 78.25 76.37 74.43 76.37 70.61 76.37 67.51 73.27 67.51 69.45Z" id="XMLID_30_" fill="#FCA39A"/><path d="M48.91 65.75C46.39 65.67 44.12 67.26 44.13 68.01 44.16 69.76 53.08 70.12 52.99 68.01 52.93 66.83 51.07 65.82 48.91 65.75Z" id="XMLID_29_" fill="#FCA39A"/><g id="XMLID_27_"><path d="M43.9 68.48C45.48 67.3 46.63 66.12 48.79 66.11 50.78 66.1 51.83 67.17 52.92 68.65 53.11 68.9 53.59 68.91 53.54 68.52 52.99 64.05 44.97 64.46 43.82 68.36 43.8 68.4 43.83 68.54 43.9 68.48L43.9 68.48Z" id="XMLID_28_" fill="#9E5147"/></g><g id="XMLID_25_"><path d="M41.54 76.11C47.34 79.55 56.93 78.07 61.44 73.16 61.92 72.64 60.88 72.13 60.45 72.6 55.91 77.55 47.5 78.03 41.61 75.64 41.29 75.5 41.33 75.98 41.54 76.11L41.54 76.11Z" id="XMLID_26_" fill="#9E5147"/></g><g id="XMLID_23_"><path d="M60.37 70.92C59.81 71.5 60.38 72.53 60.85 72.96 61.38 73.46 62.31 73.92 63.05 73.67 63.3 73.58 63.57 73.28 63.3 73.03 63.08 72.84 62.55 73.01 62.27 72.95 61.23 72.73 60.93 71.87 60.61 71 60.56 70.89 60.45 70.84 60.37 70.92L60.37 70.92Z" id="XMLID_24_" fill="#9E5147"/></g><g id="XMLID_17_"><path d="M67.16 46.29C63.83 46.28 58.93 48.28 57.52 53.06 55.8 58.88 59.37 64.53 67.16 64.25 75.52 63.95 78.48 58.98 77.59 54.37 76.63 49.44 73 46.31 67.16 46.29Z" id="XMLID_22_" fill="#FFFFFF"/><g id="XMLID_20_"><path d="M57.39 54.09C58.94 49.4 64.3 46.5 69.07 47.46 71 47.85 73.08 48.91 74.36 50.44 75.79 52.14 75.99 54.35 77.33 56.05 77.54 56.32 78.1 56.48 78.29 56.1 79.54 53.66 77.59 50.49 75.85 48.73 74.04 46.9 71.32 45.67 68.77 45.38 66.17 45.08 63.28 45.66 61.06 47.07 58.39 48.77 57.62 51 57.16 54.02 57.15 54.18 57.32 54.28 57.39 54.09L57.39 54.09Z" id="XMLID_21_" fill="#002030"/></g><path d="M58.09 56.76C58.09 52.61 61.45 49.25 65.6 49.25 69.74 49.25 73.1 52.61 73.1 56.76 73.1 60.91 69.74 64.27 65.6 64.27 61.45 64.27 58.09 60.9 58.09 56.76Z" id="XMLID_19_" fill="#19313A"/><path d="M59.82 56.08C59.82 54.76 60.89 53.68 62.22 53.68 63.55 53.68 64.62 54.75 64.62 56.08 64.62 57.41 63.55 58.48 62.22 58.48 60.89 58.48 59.82 57.4 59.82 56.08Z" id="XMLID_18_" fill="#FFFFFF"/></g><g id="XMLID_11_"><path d="M32.66 46.29C35.99 46.28 40.89 48.28 42.3 53.06 44.02 58.88 40.45 64.53 32.66 64.25 24.3 63.95 21.34 58.98 22.23 54.37 23.2 49.44 26.83 46.31 32.66 46.29Z" id="XMLID_16_" fill="#FFFFFF"/><g id="XMLID_14_"><path d="M42.65 53.95C42.15 50.82 40.86 48.38 38.02 46.75 35.38 45.23 32.03 44.89 29.13 45.76 27.08 46.37 24.98 47.52 23.57 49.15 22.15 50.8 20.18 53.78 21.58 55.89 21.81 56.23 22.37 56.55 22.66 56.09 23.56 54.67 23.79 52.99 24.67 51.55 25.66 49.94 27.04 48.88 28.75 48.12 34.01 45.77 40.64 48.5 42.42 54.1 42.51 54.33 42.68 54.1 42.65 53.95L42.65 53.95Z" id="XMLID_15_" fill="#002030"/></g><ellipse cx="34.24" cy="56.76" rx="7.51" ry="7.51" id="XMLID_13_" fill="#19313A" transform="matrix(0.3844 -0.9231 0.9231 0.3844 -31.3235 66.5438)"/><path d="M33.06 56.08C33.06 54.76 31.99 53.68 30.66 53.68 29.33 53.68 28.26 54.75 28.26 56.08 28.26 57.41 29.33 58.48 30.66 58.48 31.99 58.48 33.06 57.4 33.06 56.08Z" id="XMLID_12_" fill="#FFFFFF"/></g><g id="XMLID_9_"><path d="M74.02 42.76C74.07 42.6 74.11 42.44 74.07 42.28 73.89 41.44 73.42 40.82 72.85 40.19 72.08 39.34 71.12 38.67 70.13 38.11 68.19 37.02 65.95 36.47 63.73 36.59 63.31 36.61 62.88 36.66 62.51 36.86 62.03 37.12 61.7 37.63 61.66 38.17 61.59 39.17 62.39 39.64 63.27 39.77 63.94 39.87 64.61 39.97 65.27 40.07 65.76 40.14 66.25 40.22 66.73 40.32 68.35 40.65 69.92 41.25 71.35 42.08 71.94 42.43 72.53 42.82 73.2 42.96 73.44 43.02 73.91 43.06 74.02 42.76Z" id="XMLID_10_" fill="#7A4141"/></g><g id="XMLID_7_"><path d="M25.64 42.03C25.6 41.87 25.58 41.71 25.63 41.54 25.88 40.72 26.39 40.13 27.01 39.55 27.84 38.77 28.85 38.16 29.88 37.68 31.9 36.75 34.18 36.37 36.38 36.66 36.8 36.71 37.22 36.8 37.57 37.02 38.03 37.31 38.32 37.85 38.32 38.39 38.32 39.4 37.48 39.8 36.59 39.87 35.92 39.92 35.24 39.97 34.57 40.02 34.08 40.06 33.58 40.09 33.09 40.15 31.45 40.35 29.84 40.83 28.34 41.55 27.72 41.85 27.11 42.19 26.43 42.28 26.19 42.33 25.73 42.34 25.64 42.03Z" id="XMLID_8_" fill="#7A4141"/></g><path d="M83.61 49.73C84.72 46.19 89.59 41.22 95.21 43.38 100.83 45.54 102.13 53.98 99 60.25 95.86 66.52 87.31 68.82 84.12 64.26L83.61 49.73Z" id="XMLID_6_" fill="#FFC8AC"/><path d="M83.29 54.15C83.22 54.36 83.51 54.81 83.75 54.64 84.81 53.94 85.57 52.93 86.67 52.3 87.87 51.62 89.19 51.43 90.52 51.57 91.14 52.43 91.7 53.09 91.57 54.41 91.46 55.55 90.97 56.82 90.18 57.66 89.56 58.32 88.62 58.52 87.86 58.97 87.8 59 87.74 59.19 87.84 59.21 91.46 60.09 93.88 55.06 92.77 52.15 94.81 53.01 96.5 54.72 96.39 57.11 96.39 57.22 96.5 57.2 96.54 57.12 99.51 49.62 85.64 46.99 83.29 54.15Z" id="XMLID_5_" fill="#9E5147"/><path d="M90.97 43C89.68 52.31 83.51 57.43 82.48 55.68 81.46 53.93 82.98 45.85 82.48 43.38L90.97 43" id="XMLID_4_" fill="#AA5E5E"/><path d="M73.18 114.27C69.77 103.12 65.7 99.18 64.37 95.55L64.37 95.55C64.34 95.63 62.72 99.78 54.46 99.78 46.21 99.78 44.59 95.64 44.55 95.55 43.21 99.18 39.14 103.11 35.74 114.27 31.14 129.32 29.81 137.58 29.81 145.63 29.81 145.63 39.43 148.84 54.47 148.84 69.51 148.84 79.13 145.63 79.13 145.63 79.12 137.43 77.78 129.32 73.18 114.27Z" id="XMLID_3_" fill="#9DD7F0"/></g></g></svg>