<svg width="101.25" height="182.58" viewBox="0 0 101.25 182.58" xmlns="http://www.w3.org/2000/svg" xmlns:xlink="http://www.w3.org/1999/xlink" xml:space="preserve" overflow="hidden"><defs></defs><g id="XMLID_1_"><path d="M0 176.17C0 172.63 22.67 169.76 50.63 169.76 78.59 169.76 101.26 172.63 101.26 176.17 101.26 179.71 78.59 182.58 50.63 182.58 22.67 182.58 0 179.71 0 176.17Z" id="XMLID_56_" fill="#BDD5DB"/><g id="XMLID_2_"><path d="M69.2 106.98C65.21 93.93 60.32 90.76 59.96 86.41 59.62 82.35 59.53 77.8 59.53 77.8L41.43 77.8C41.43 77.8 41.33 82.35 41 86.41 40.64 90.76 35.74 93.93 31.76 106.98 27.16 122.03 25.83 138.34 25.83 138.34 25.83 138.34 35.45 141.55 50.49 141.55 65.53 141.55 75.15 138.34 75.15 138.34 75.15 138.34 73.8 122.03 69.2 106.98Z" id="XMLID_55_" fill="#FFC8AC"/><path d="M13.08 46.39C13.08 46.39 5.24 45.42 5.08 30 4.86 10 32.51-11.08 63.36 9.09 80.33 5.3 92.19 18.29 91.22 36.1 90.1 56.62 90.45 75.23 75.13 79.84 59.81 84.45 49 81.56 49 81.56L13.08 46.39Z" id="XMLID_54_" fill="#CC5440"/><g id="XMLID_52_"><path d="M57.56 0.43C59.43 0.65 61.33 3.23 62.07 4.7 62.84 6.23 62.71 7.34 62.51 9.02 62.41 9.86 62.3 9.83 62.5 10.62 62.59 10.97 63.14 10.89 63.31 10.68 65.29 8.14 63.78 4.21 61.79 2.19 60.81 1.19 58.97-0.44 57.44 0.12 57.28 0.17 57.46 0.41 57.56 0.43L57.56 0.43Z" id="XMLID_53_" fill="#CC5440"/></g><path d="M69.41 4.69C67.17 2.92 62.99 7.28 62.73 9.26 62.69 9.57 62.66 10.14 62.93 10.36 63.84 11.09 64.78 8.74 65.02 8.4 65.86 7.24 67.84 5.05 69.4 4.93 69.54 4.92 69.49 4.75 69.41 4.69Z" id="XMLID_51_" fill="#CC5440"/><path d="M40.56 86.77C37.67 85.51 32.67 87.16 23.58 97.35 20.96 100.29 18.4 103.27 15.9 106.3 14.03 108.57 12.19 110.86 10.4 113.19 9.74 114.05 9.12 114.96 8.29 115.67 7.36 116.47 6.14 116.77 4.99 117.08 4.26 117.27 3.36 117.4 2.81 117.96 2.24 118.54 2.52 119.41 3.24 119.7 4.02 120.01 4.99 119.8 5.81 119.87 5.95 119.88 6.08 119.93 6.17 120.04 6.3 120.21 6.16 120.45 6.08 120.58 5.53 121.39 5.19 121.8 4.86 122.28 4.33 123.05 2.8 124.74 3.47 125.75 3.73 126.15 4.44 126.28 4.8 126.11 5.38 125.83 5.89 125.45 6.36 125.02 6.6 124.81 6.83 124.58 7.05 124.35 7.23 124.16 7.48 123.83 7.78 123.86 8.03 123.89 8.03 124.2 7.99 124.39 7.95 124.6 7.84 124.8 7.74 124.98 7.35 125.69 6.89 126.39 6.59 127.14 6.45 127.51 6.31 127.88 6.28 128.28 6.25 128.59 6.3 128.92 6.52 129.14 6.68 129.3 6.9 129.37 7.13 129.38 7.63 129.42 8.11 129.2 8.5 128.89 8.99 128.5 9.38 128.01 9.75 127.52 10.15 127.01 10.54 126.5 10.96 126 11.05 125.89 11.16 125.78 11.29 125.77 11.44 125.76 11.57 125.89 11.61 126.03 11.65 126.17 11.63 126.33 11.6 126.47 11.51 126.86 11.34 127.19 11.19 127.56 11.04 127.94 10.9 128.33 10.79 128.73 10.67 129.16 10.56 129.63 10.73 130.04 11.04 130.8 11.93 130.95 12.6 130.45 13.26 129.96 14.71 127.18 14.94 126.75 16.38 124.1 18.25 121.72 20.01 119.26 22.78 115.38 29.24 107.72 31.76 105.48L40.56 86.77Z" id="XMLID_50_" fill="#FFC8AC"/><path d="M60.39 86.77C63.28 85.51 68.28 87.16 77.37 97.35 79.99 100.29 82.55 103.27 85.05 106.3 86.92 108.57 88.76 110.86 90.55 113.19 91.21 114.05 91.83 114.96 92.66 115.67 93.59 116.47 94.81 116.77 95.97 117.08 96.69 117.27 97.6 117.4 98.15 117.96 98.72 118.54 98.44 119.41 97.72 119.7 96.94 120.01 95.97 119.8 95.15 119.87 95.01 119.88 94.88 119.93 94.79 120.04 94.66 120.21 94.8 120.45 94.88 120.58 95.43 121.39 95.77 121.8 96.1 122.28 96.63 123.05 98.16 124.74 97.49 125.75 97.23 126.15 96.52 126.28 96.16 126.11 95.59 125.83 95.07 125.45 94.6 125.02 94.36 124.81 94.13 124.58 93.91 124.35 93.73 124.16 93.48 123.83 93.18 123.86 92.93 123.89 92.93 124.2 92.97 124.39 93.01 124.6 93.12 124.8 93.22 124.98 93.61 125.69 94.07 126.39 94.37 127.14 94.51 127.51 94.64 127.88 94.68 128.28 94.71 128.59 94.66 128.92 94.44 129.14 94.28 129.3 94.06 129.37 93.83 129.38 93.33 129.42 92.85 129.2 92.46 128.89 91.97 128.5 91.59 128.01 91.21 127.52 90.81 127.01 90.42 126.5 90 126 89.91 125.89 89.81 125.78 89.67 125.77 89.52 125.76 89.39 125.89 89.35 126.03 89.31 126.17 89.33 126.33 89.36 126.47 89.45 126.86 89.63 127.19 89.77 127.56 89.92 127.94 90.06 128.33 90.17 128.73 90.29 129.16 90.4 129.63 90.23 130.04 89.92 130.8 89.03 130.95 88.36 130.45 87.7 129.96 86.25 127.18 86.02 126.75 84.58 124.1 83.05 121.46 81.3 119 76.63 112.46 71.73 107.72 69.2 105.48L60.39 86.77Z" id="XMLID_49_" fill="#FFC8AC"/><path d="M84.1 82.05C83.37 85.45 81.59 90.11 78.69 91.9 75.79 93.68 68.52 85.42 71.2 79.32 72.71 75.89 76.1 74.26 77.85 74.02 79.61 73.78 85.05 77.64 84.1 82.05Z" id="XMLID_48_" fill="#CC5440"/><path d="M84.45 94.52C83.72 97.92 81.94 102.59 79.04 104.37 76.14 106.15 68.87 97.89 71.55 91.79 73.06 88.36 76.45 86.73 78.2 86.49 79.96 86.25 85.4 90.11 84.45 94.52Z" id="XMLID_47_" fill="#CC5440"/><path d="M59.58 77.8 41.43 77.8C41.43 77.8 41.35 81.47 41.09 85.17 42.95 85.28 44.79 85.32 46.57 85.32 50.84 85.32 56.7 83.85 59.68 82.22 59.52 78.87 59.58 77.8 59.58 77.8Z" id="XMLID_46_" fill="#F49282"/><path d="M25.82 138.34 28.42 169.45C28.42 169.45 23.62 170.87 21.16 172.28 18.7 173.7 19.3 175.42 30.24 175.42 41.18 175.42 46.15 175.42 46.15 175.42L49.51 138.34 25.82 138.34Z" id="XMLID_45_" fill="#FFC8AC"/><path d="M75.2 138.34 72.6 169.45C72.6 169.45 77.4 170.87 79.86 172.28 82.32 173.7 81.72 175.42 70.78 175.42 59.84 175.42 54.87 175.42 54.87 175.42L51.51 138.34 75.2 138.34Z" id="XMLID_44_" fill="#FFC8AC"/><path d="M49.29 140.79 26.02 140.79 27.15 154.36C31.67 155.61 38.29 156.69 47.83 156.86L49.29 140.79Z" id="XMLID_43_" fill="#F49282"/><path d="M51.73 140.79 53.18 156.85C62.73 156.68 69.35 155.59 73.86 154.33L74.99 140.78 51.73 140.78Z" id="XMLID_42_" fill="#F49282"/><path d="M60.38 88.26 50.47 92.49 40.56 88.26C40.56 88.26 21.98 116.05 18.1 147.52 18.1 147.52 23 154.43 50.47 154.43 77.94 154.43 82.84 147.52 82.84 147.52 78.97 116.06 60.38 88.26 60.38 88.26Z" id="XMLID_40_" fill="#EC5E76"/><path d="M54.86 175.42C54.86 175.42 59.82 175.42 70.77 175.42 81.72 175.42 82.31 173.69 79.85 172.28 77.39 170.86 72.59 169.45 72.59 169.45L54.32 169.45 54.86 175.42Z" id="XMLID_39_" fill="#002030"/><path d="M28.42 169.44C28.42 169.44 23.62 170.86 21.16 172.27 18.7 173.69 19.3 175.41 30.24 175.41 41.18 175.41 46.15 175.41 46.15 175.41L46.69 169.43 28.42 169.43Z" id="XMLID_38_" fill="#002030"/><path d="M46.58 79.83C56.21 79.83 67.46 78.68 74.34 72.26 81.22 65.84 81.91 49.32 77.78 33.03 73.65 16.74 57.82 13.07 46.58 13.07 35.34 13.07 19.51 16.74 15.38 33.03 11.25 49.32 11.94 65.84 18.82 72.26 25.7 78.69 36.94 79.83 46.58 79.83Z" id="XMLID_37_" fill="#FFC8AC"/><path d="M14.24 62.16C14.24 58.34 17.34 55.24 21.16 55.24 24.98 55.24 28.08 58.34 28.08 62.16 28.08 65.98 24.98 69.08 21.16 69.08 17.34 69.09 14.24 65.99 14.24 62.16Z" id="XMLID_36_" fill="#FCA39A"/><path d="M63.52 62.16C63.52 58.34 66.62 55.24 70.44 55.24 74.26 55.24 77.36 58.34 77.36 62.16 77.36 65.98 74.26 69.08 70.44 69.08 66.62 69.09 63.52 65.99 63.52 62.16Z" id="XMLID_35_" fill="#FCA39A"/><path d="M48.14 13.1C48.14 13.1 53.78 29.05 79.29 43.43 79.29 43.43 84.52 29.01 74.71 19.98 64.9 10.94 48.14 13.1 48.14 13.1Z" id="XMLID_34_" fill="#CC5440"/><path d="M48.14 13.1C48.14 13.1 43.06 32.87 11.43 42.66 11.43 42.66 11.76 29.02 21.57 19.98 31.38 10.94 48.14 13.1 48.14 13.1Z" id="XMLID_33_" fill="#CC5440"/><path d="M44.92 58.47C42.4 58.38 40.13 59.98 40.14 60.73 40.18 62.48 49.09 62.83 49 60.73 48.95 59.55 47.08 58.54 44.92 58.47Z" id="XMLID_32_" fill="#FCA39A"/><g id="XMLID_28_"><path d="M39.91 61.2C41.49 60.02 42.64 58.84 44.8 58.83 46.78 58.82 47.84 59.89 48.93 61.37 49.12 61.62 49.6 61.63 49.55 61.24 49 56.77 40.98 57.18 39.82 61.08 39.81 61.12 39.84 61.25 39.91 61.2L39.91 61.2Z" id="XMLID_29_" fill="#9E5147"/></g><g id="XMLID_26_"><path d="M37.55 68.82C43.35 72.26 52.93 70.78 57.45 65.87 57.93 65.35 56.89 64.84 56.46 65.31 51.92 70.26 43.51 70.74 37.62 68.35 37.3 68.22 37.35 68.7 37.55 68.82L37.55 68.82Z" id="XMLID_27_" fill="#9E5147"/></g><g id="XMLID_24_"><path d="M56.38 63.64C55.82 64.22 56.4 65.25 56.86 65.68 57.39 66.18 58.32 66.64 59.06 66.39 59.31 66.3 59.58 66 59.31 65.75 59.09 65.56 58.56 65.72 58.28 65.67 57.24 65.45 56.94 64.59 56.62 63.72 56.58 63.61 56.47 63.56 56.38 63.64L56.38 63.64Z" id="XMLID_25_" fill="#9E5147"/></g><g id="XMLID_18_"><path d="M63.18 39C59.85 38.99 54.95 40.99 53.54 45.77 51.82 51.59 55.39 57.24 63.18 56.96 71.54 56.66 74.5 51.69 73.61 47.08 72.64 42.15 69.01 39.02 63.18 39Z" id="XMLID_23_" fill="#FFFFFF"/><g id="XMLID_21_"><path d="M53.4 46.8C54.95 42.11 60.31 39.21 65.08 40.17 67.01 40.56 69.09 41.62 70.37 43.15 71.8 44.85 72 47.06 73.34 48.76 73.55 49.03 74.11 49.19 74.3 48.81 75.55 46.37 73.6 43.19 71.86 41.44 70.05 39.61 67.33 38.38 64.78 38.09 62.18 37.79 59.29 38.37 57.07 39.78 54.4 41.48 53.63 43.71 53.17 46.73 53.16 46.9 53.33 47 53.4 46.8L53.4 46.8Z" id="XMLID_22_" fill="#002030"/></g><path d="M54.1 49.48C54.1 45.34 57.46 41.98 61.6 41.98 65.75 41.98 69.11 45.34 69.11 49.48 69.11 53.63 65.75 56.99 61.6 56.99 57.46 56.98 54.1 53.62 54.1 49.48Z" id="XMLID_20_" fill="#19313A"/><path d="M55.25 48.79C55.25 47.46 56.32 46.39 57.65 46.39 58.98 46.39 60.05 47.46 60.05 48.79 60.05 50.12 58.98 51.19 57.65 51.19 56.32 51.19 55.25 50.12 55.25 48.79Z" id="XMLID_19_" fill="#FFFFFF"/></g><g id="XMLID_12_"><path d="M28.67 39C32 38.99 36.9 40.99 38.31 45.77 40.03 51.59 36.46 57.24 28.67 56.96 20.31 56.66 17.35 51.69 18.24 47.08 19.21 42.15 22.84 39.02 28.67 39Z" id="XMLID_17_" fill="#FFFFFF"/><g id="XMLID_15_"><path d="M38.66 46.67C38.16 43.54 36.87 41.1 34.03 39.47 31.39 37.95 28.04 37.61 25.14 38.48 23.09 39.09 20.99 40.24 19.58 41.87 18.15 43.52 16.19 46.5 17.59 48.61 17.82 48.95 18.38 49.27 18.67 48.81 19.57 47.39 19.8 45.71 20.68 44.27 21.67 42.66 23.05 41.6 24.76 40.84 30.02 38.49 36.65 41.22 38.43 46.82 38.52 47.05 38.69 46.82 38.66 46.67L38.66 46.67Z" id="XMLID_16_" fill="#002030"/></g><path d="M37.75 49.48C37.75 45.34 34.39 41.98 30.24 41.98 26.1 41.98 22.74 45.34 22.74 49.48 22.74 53.63 26.1 56.99 30.24 56.99 34.39 56.98 37.75 53.62 37.75 49.48Z" id="XMLID_14_" fill="#19313A"/><path d="M28.84 48.79C28.84 47.46 27.77 46.39 26.44 46.39 25.11 46.39 24.04 47.46 24.04 48.79 24.04 50.12 25.11 51.19 26.44 51.19 27.77 51.19 28.84 50.12 28.84 48.79Z" id="XMLID_13_" fill="#FFFFFF"/></g><g id="XMLID_10_"><path d="M70.03 31.25C70.08 31.09 70.12 30.93 70.08 30.77 69.9 29.93 69.43 29.31 68.86 28.68 68.09 27.83 67.13 27.16 66.14 26.6 64.2 25.51 61.96 24.96 59.74 25.08 59.32 25.1 58.89 25.15 58.52 25.35 58.04 25.61 57.71 26.12 57.67 26.66 57.6 27.66 58.4 28.13 59.28 28.26 59.95 28.36 60.62 28.46 61.28 28.56 61.77 28.63 62.26 28.71 62.74 28.81 64.36 29.14 65.93 29.74 67.36 30.57 67.95 30.92 68.54 31.31 69.21 31.45 69.46 31.5 69.92 31.55 70.03 31.25Z" id="XMLID_11_" fill="#A03717"/></g><g id="XMLID_8_"><path d="M21.65 30.52C21.61 30.36 21.59 30.2 21.64 30.03 21.89 29.21 22.4 28.62 23.02 28.04 23.85 27.25 24.86 26.65 25.89 26.17 27.91 25.24 30.18 24.86 32.39 25.15 32.81 25.2 33.23 25.29 33.58 25.51 34.04 25.8 34.33 26.34 34.33 26.88 34.33 27.89 33.49 28.29 32.6 28.36 31.93 28.41 31.25 28.46 30.58 28.51 30.09 28.55 29.59 28.58 29.1 28.64 27.46 28.84 25.85 29.32 24.35 30.04 23.73 30.34 23.12 30.68 22.44 30.77 22.2 30.81 21.74 30.83 21.65 30.52Z" id="XMLID_9_" fill="#A03717"/></g><path d="M79.62 42.44C80.73 38.9 85.6 33.93 91.22 36.09 96.84 38.25 98.14 46.69 95.01 52.96 91.87 59.23 83.32 61.53 80.13 56.97L79.62 42.44Z" id="XMLID_7_" fill="#FFC8AC"/><path d="M79.3 46.86C79.23 47.07 79.52 47.52 79.76 47.36 80.82 46.66 81.58 45.65 82.68 45.02 83.88 44.34 85.2 44.15 86.53 44.29 87.15 45.15 87.71 45.81 87.58 47.13 87.47 48.27 86.98 49.54 86.19 50.38 85.57 51.04 84.63 51.24 83.87 51.69 83.81 51.72 83.75 51.91 83.85 51.93 87.47 52.81 89.89 47.78 88.78 44.87 90.82 45.73 92.51 47.44 92.4 49.83 92.4 49.94 92.51 49.92 92.55 49.84 95.52 42.34 81.65 39.7 79.3 46.86Z" id="XMLID_6_" fill="#9E5147"/><path d="M86.98 35.72C85.69 45.03 79.52 50.15 78.49 48.4 77.47 46.65 78.99 38.57 78.49 36.1L86.98 35.72" id="XMLID_5_" fill="#CC5440"/><path d="M41 86.41C41 86.41 36.1 87.82 36.42 91.49 36.74 95.16 43.98 98.69 50.48 92.5L41 86.41Z" id="XMLID_4_" fill="#F7F9F9"/><path d="M59.95 86.41C59.95 86.41 64.85 87.82 64.53 91.49 64.21 95.16 56.96 98.69 50.47 92.5L59.95 86.41Z" id="XMLID_3_" fill="#F7F9F9"/></g></g></svg>